<svg xmlns="http://www.w3.org/2000/svg" viewBox="0 0 337.91 151.6"><defs><style>.cls-1{fill:#3e3a39;}.cls-2{fill:#999;}.cls-3{fill:#333;}.cls-4{fill:#4f5058;}.cls-5{fill:#242529;}.cls-6{fill:#d6ca8c;}.cls-11,.cls-7,.cls-8{fill:#fff;}.cls-8{font-size:10px;font-family:MicrosoftYaHei, Microsoft YaHei;}.cls-9{letter-spacing:-0.03em;}.cls-10{fill:none;stroke:#00a0e9;stroke-miterlimit:10;}.cls-11{font-size:8px;font-family:MicrosoftYaHei-Bold, Microsoft YaHei;font-weight:700;}</style></defs><title>资源 1</title><g id="图层_2" data-name="图层 2"><g id="图层_1-2" data-name="图层 1"><path class="cls-1" d="M.1,8.63V142.82a8.63,8.63,0,0,0,8.63,8.63h313l8.11-8.1,8.11-8.11V8.63A8.64,8.64,0,0,0,329.27,0H8.73A8.63,8.63,0,0,0,.1,8.63ZM330.71,129.16a2,2,0,1,1,2,2A2,2,0,0,1,330.71,129.16Zm0-8.17a2,2,0,1,1,2,2A2,2,0,0,1,330.71,121Zm0-107.14a2,2,0,1,1,2,2A2,2,0,0,1,330.71,13.85Zm0-8.17a2,2,0,1,1,2,2A2,2,0,0,1,330.71,5.68ZM322.6,129.16a2,2,0,1,1,2,2A2,2,0,0,1,322.6,129.16Zm0-8.17a2,2,0,1,1,2,2A2,2,0,0,1,322.6,121Zm0-107.14a2,2,0,1,1,2,2A2,2,0,0,1,322.6,13.85Zm0-8.17a2,2,0,1,1,2,2A2,2,0,0,1,322.6,5.68ZM303.3,141.91a5.47,5.47,0,1,1,5.47,5.46A5.46,5.46,0,0,1,303.3,141.91Zm0-132a5.47,5.47,0,1,1,5.47,5.46A5.46,5.46,0,0,1,303.3,9.93ZM4.23,141.91a5.46,5.46,0,1,1,5.46,5.46A5.45,5.45,0,0,1,4.23,141.91Zm0-132a5.46,5.46,0,1,1,5.46,5.46A5.45,5.45,0,0,1,4.23,9.93Z"/><path class="cls-2" d="M329.63,5.68a3.07,3.07,0,1,0,3.07-3.07A3.06,3.06,0,0,0,329.63,5.68Zm1.08,0a2,2,0,1,1,2,2A2,2,0,0,1,330.71,5.68Z"/><path class="cls-2" d="M321.51,5.68a3.07,3.07,0,1,0,3.07-3.07A3.07,3.07,0,0,0,321.51,5.68Zm1.09,0a2,2,0,1,1,2,2A2,2,0,0,1,322.6,5.68Z"/><path class="cls-2" d="M329.63,13.85a3.07,3.07,0,1,0,3.07-3.07A3.06,3.06,0,0,0,329.63,13.85Zm1.08,0a2,2,0,1,1,2,2A2,2,0,0,1,330.71,13.85Z"/><path class="cls-2" d="M321.51,13.85a3.07,3.07,0,1,0,3.07-3.07A3.07,3.07,0,0,0,321.51,13.85Zm1.09,0a2,2,0,1,1,2,2A2,2,0,0,1,322.6,13.85Z"/><path class="cls-2" d="M329.63,121a3.07,3.07,0,1,0,3.07-3.07A3.06,3.06,0,0,0,329.63,121Zm1.08,0a2,2,0,1,1,2,2A2,2,0,0,1,330.71,121Z"/><path class="cls-2" d="M321.51,121a3.07,3.07,0,1,0,3.07-3.07A3.07,3.07,0,0,0,321.51,121Zm1.09,0a2,2,0,1,1,2,2A2,2,0,0,1,322.6,121Z"/><path class="cls-2" d="M329.63,129.16a3.07,3.07,0,1,0,3.07-3.07A3.06,3.06,0,0,0,329.63,129.16Zm1.08,0a2,2,0,1,1,2,2A2,2,0,0,1,330.71,129.16Z"/><path class="cls-2" d="M321.51,129.16a3.07,3.07,0,1,0,3.07-3.07A3.07,3.07,0,0,0,321.51,129.16Zm1.09,0a2,2,0,1,1,2,2A2,2,0,0,1,322.6,129.16Z"/><path class="cls-3" d="M299.08,9.93A9.69,9.69,0,1,0,308.77.24,9.69,9.69,0,0,0,299.08,9.93Zm4.22,0a5.47,5.47,0,1,1,5.47,5.46A5.46,5.46,0,0,1,303.3,9.93Z"/><path class="cls-3" d="M299.08,141.91a9.69,9.69,0,1,0,9.69-9.69A9.69,9.69,0,0,0,299.08,141.91Zm4.22,0a5.47,5.47,0,1,1,5.47,5.46A5.46,5.46,0,0,1,303.3,141.91Z"/><path class="cls-3" d="M0,141.91a9.69,9.69,0,1,0,9.69-9.69A9.69,9.69,0,0,0,0,141.91Zm4.23,0a5.46,5.46,0,1,1,5.46,5.46A5.45,5.45,0,0,1,4.23,141.91Z"/><path class="cls-3" d="M0,9.93A9.69,9.69,0,1,0,9.69.24,9.69,9.69,0,0,0,0,9.93Zm4.23,0a5.46,5.46,0,1,1,5.46,5.46A5.45,5.45,0,0,1,4.23,9.93Z"/><polygon class="cls-4" points="184.65 89.75 180.33 89.75 180.33 88.52 177.19 88.52 177.19 89.75 154.62 89.75 154.62 88.52 151.47 88.52 151.47 89.75 128.78 89.75 128.78 88.52 125.63 88.52 125.63 89.75 121.44 89.75 121.44 116.89 184.65 116.89 184.65 89.75"/><polygon class="cls-5" points="123.13 115.27 123.13 91.71 182.96 91.71 182.96 115.27 159.52 115.27 159.52 113.79 181.47 113.79 181.47 93.19 124.61 93.19 124.61 113.79 146.63 113.79 146.63 115.27 123.13 115.27"/><rect class="cls-6" x="168.48" y="106.66" width="1.64" height="1.64" transform="translate(276.78 -61.82) rotate(90)"/><rect class="cls-6" x="160.28" y="106.66" width="1.64" height="1.64" transform="translate(268.58 -53.62) rotate(90)"/><rect class="cls-6" x="152.07" y="106.66" width="1.64" height="1.64" transform="translate(260.38 -45.42) rotate(90)"/><rect class="cls-6" x="143.87" y="106.66" width="1.64" height="1.64" transform="translate(252.17 -37.21) rotate(90)"/><rect class="cls-6" x="135.67" y="106.66" width="1.64" height="1.64" transform="translate(243.97 -29.01) rotate(90)"/><rect class="cls-6" x="168.48" y="98.58" width="1.64" height="1.64" transform="translate(268.7 -69.9) rotate(90)"/><rect class="cls-6" x="160.28" y="98.58" width="1.64" height="1.64" transform="translate(260.5 -61.7) rotate(90)"/><rect class="cls-6" x="152.07" y="98.58" width="1.64" height="1.64" transform="translate(252.3 -53.5) rotate(90)"/><rect class="cls-6" x="143.87" y="98.58" width="1.64" height="1.64" transform="translate(244.1 -45.29) rotate(90)"/><rect class="cls-6" x="135.67" y="98.58" width="1.64" height="1.64" transform="translate(235.89 -37.09) rotate(90)"/><polygon class="cls-4" points="119.95 89.75 115.63 89.75 115.63 88.52 112.49 88.52 112.49 89.75 89.92 89.75 89.92 88.52 86.77 88.52 86.77 89.75 64.08 89.75 64.08 88.52 60.93 88.52 60.93 89.75 56.74 89.75 56.74 116.89 119.95 116.89 119.95 89.75"/><polygon class="cls-5" points="58.43 115.27 58.43 91.71 118.25 91.71 118.25 115.27 94.82 115.27 94.82 113.79 116.78 113.79 116.78 93.19 59.91 93.19 59.91 113.79 81.93 113.79 81.93 115.27 58.43 115.27"/><rect class="cls-6" x="103.78" y="106.66" width="1.64" height="1.64" transform="translate(212.08 2.88) rotate(90)"/><rect class="cls-6" x="95.58" y="106.66" width="1.64" height="1.64" transform="translate(203.88 11.08) rotate(90)"/><rect class="cls-6" x="87.37" y="106.66" width="1.64" height="1.64" transform="translate(195.68 19.28) rotate(90)"/><rect class="cls-6" x="79.17" y="106.66" width="1.64" height="1.64" transform="translate(187.47 27.49) rotate(90)"/><rect class="cls-6" x="70.97" y="106.66" width="1.64" height="1.64" transform="translate(179.27 35.69) rotate(90)"/><rect class="cls-6" x="103.78" y="98.58" width="1.64" height="1.64" transform="translate(204 -5.2) rotate(90)"/><rect class="cls-6" x="95.58" y="98.58" width="1.64" height="1.64" transform="translate(195.8 3) rotate(90)"/><rect class="cls-6" x="87.37" y="98.58" width="1.64" height="1.64" transform="translate(187.6 11.2) rotate(90)"/><rect class="cls-6" x="79.17" y="98.58" width="1.64" height="1.64" transform="translate(179.4 19.41) rotate(90)"/><rect class="cls-6" x="70.97" y="98.58" width="1.64" height="1.64" transform="translate(171.19 27.61) rotate(90)"/><path class="cls-7" d="M109.07,122.93h-2.65v-4.47H109v.78h-1.59v1.05h1.48v.78h-1.48v1.08h1.69Z"/><path class="cls-7" d="M113.52,122.93h-1.14l-.8-1.48a1.25,1.25,0,0,1-.09-.29h0a2,2,0,0,1-.11.3l-.8,1.47h-1.14l1.43-2.24-1.31-2.23h1.16l.67,1.37a2.61,2.61,0,0,1,.14.37h0a3.86,3.86,0,0,1,.15-.39l.73-1.35h1.07l-1.35,2.22Z"/><path class="cls-7" d="M115,121.37v1.56h-1v-4.47h1.54c1.11,0,1.67.47,1.67,1.41a1.37,1.37,0,0,1-.51,1.11,1.86,1.86,0,0,1-1.26.39Zm0-2.17v1.44h.41c.56,0,.84-.24.84-.73s-.27-.71-.83-.71Z"/><path class="cls-7" d="M120,118.36v4.57H119v-3.52a1.57,1.57,0,0,1-.47.27,2.28,2.28,0,0,1-.55.15V119a4.49,4.49,0,0,0,1.37-.67Z"/><path class="cls-7" d="M172.78,123h-2.65v-4.48h2.55v.78h-1.6v1.06h1.48v.78h-1.48v1.08h1.7Z"/><path class="cls-7" d="M177.22,123h-1.13l-.8-1.48a1.38,1.38,0,0,1-.09-.3h0a1.71,1.71,0,0,1-.1.3l-.81,1.48h-1.14l1.44-2.24-1.31-2.24h1.16l.67,1.37a2.32,2.32,0,0,1,.13.37h0c0-.12.09-.25.14-.38l.74-1.36h1.07l-1.36,2.22Z"/><path class="cls-7" d="M178.73,121.41V123h-1v-4.48h1.54c1.12,0,1.67.48,1.67,1.42a1.33,1.33,0,0,1-.5,1.1,1.85,1.85,0,0,1-1.26.4Zm0-2.18v1.45h.41c.56,0,.84-.24.84-.73s-.28-.72-.83-.72Z"/><path class="cls-7" d="M182.53,122.19h1.9V123h-3v-.33a1.66,1.66,0,0,1,.13-.64,2.31,2.31,0,0,1,.36-.54,3.88,3.88,0,0,1,.7-.58,2.56,2.56,0,0,0,.6-.58.89.89,0,0,0,.18-.53q0-.6-.66-.6a1.65,1.65,0,0,0-1.11.46v-.83a2.34,2.34,0,0,1,1.32-.38,1.54,1.54,0,0,1,1.06.34,1.19,1.19,0,0,1,.39.94,1.48,1.48,0,0,1-.11.61,1.59,1.59,0,0,1-.33.51,4.08,4.08,0,0,1-.68.57,3.49,3.49,0,0,0-.61.5A.52.52,0,0,0,182.53,122.19Z"/><text class="cls-8" transform="translate(24.22 13.85)">Mini 12864 <tspan class="cls-9" x="56.49" y="0">P</tspan><tspan x="62.27" y="0">anel</tspan><tspan x="0" y="12">V1.2</tspan></text><line class="cls-10" x1="71.79" y1="111.72" x2="71.79" y2="119.2"/><text class="cls-11" transform="translate(69.33 128.72)">1</text><line class="cls-10" x1="136.49" y1="111.72" x2="136.49" y2="119.2"/><text class="cls-11" transform="translate(134.03 128.72)">1</text></g></g></svg>