<svg xmlns="http://www.w3.org/2000/svg" viewBox="0 0 487.26 234.11"><defs><style>.cls-1{fill:#4f5058;}.cls-2{fill:#242529;}.cls-3{fill:#d6ca8c;}.cls-4{fill:#dcdddd;opacity:0.5;}.cls-11,.cls-4,.cls-5,.cls-6,.cls-7,.cls-8{stroke:#c9caca;stroke-miterlimit:10;}.cls-5{fill:#f4e6b1;}.cls-6{fill:#8fc31f;}.cls-7{fill:#93c262;}.cls-8{fill:#c5ddaa;}.cls-9{font-size:15px;}.cls-11,.cls-12,.cls-16,.cls-17,.cls-9{fill:#231815;}.cls-12,.cls-15,.cls-17,.cls-18,.cls-9{font-family:MicrosoftYaHei-Bold, Microsoft YaHei;font-weight:700;}.cls-10{letter-spacing:0.02em;}.cls-12,.cls-15{font-size:12px;}.cls-13{letter-spacing:-0.06em;}.cls-14,.cls-15,.cls-18{fill:#fff;}.cls-17,.cls-18{font-size:11px;}.cls-19{letter-spacing:-0.03em;}</style></defs><title>资源 4</title><g id="图层_2" data-name="图层 2"><g id="图层_1-2" data-name="图层 1"><polygon class="cls-1" points="291.14 234.11 291.14 219.71 295.36 219.71 295.36 209.22 291.14 209.22 291.14 133.92 295.36 133.92 295.36 123.43 291.14 123.43 291.14 47.73 295.36 47.73 295.36 37.23 291.14 37.23 291.14 23.24 197.8 23.24 197.8 234.11 291.14 234.11"/><polygon class="cls-2" points="203.35 28.9 284.39 28.9 284.39 228.46 203.35 228.46 203.35 150.28 208.44 150.28 208.44 223.52 279.3 223.52 279.3 33.84 208.44 33.84 208.44 107.28 203.35 107.28 203.35 28.9"/><rect class="cls-3" x="227.32" y="180.17" width="5.66" height="5.49" transform="translate(460.3 365.82) rotate(180)"/><rect class="cls-3" x="227.32" y="152.8" width="5.66" height="5.49" transform="translate(460.3 311.1) rotate(180)"/><rect class="cls-3" x="227.32" y="125.44" width="5.66" height="5.49" transform="translate(460.3 256.37) rotate(180)"/><rect class="cls-3" x="227.32" y="98.08" width="5.66" height="5.49" transform="translate(460.3 201.65) rotate(180)"/><rect class="cls-3" x="227.32" y="70.72" width="5.66" height="5.49" transform="translate(460.3 146.93) rotate(180)"/><rect class="cls-3" x="255.11" y="180.17" width="5.66" height="5.49" transform="translate(515.88 365.82) rotate(180)"/><rect class="cls-3" x="255.11" y="152.8" width="5.66" height="5.49" transform="translate(515.88 311.1) rotate(180)"/><rect class="cls-3" x="255.11" y="125.44" width="5.66" height="5.49" transform="translate(515.88 256.37) rotate(180)"/><rect class="cls-3" x="255.11" y="98.08" width="5.66" height="5.49" transform="translate(515.88 201.65) rotate(180)"/><rect class="cls-3" x="255.11" y="70.72" width="5.66" height="5.49" transform="translate(515.88 146.93) rotate(180)"/><rect class="cls-4" x="172.11" y="58.14" width="40.84" height="28.21"/><rect class="cls-4" x="172.11" y="170.97" width="40.84" height="28.21"/><rect class="cls-4" x="172.11" y="142.76" width="40.84" height="28.21"/><rect class="cls-4" x="172.11" y="114.55" width="40.84" height="28.21"/><rect class="cls-4" x="172.11" y="86.35" width="40.84" height="28.21"/><rect class="cls-5" x="57.72" y="170.97" width="56.81" height="28.21"/><rect class="cls-5" x="57.72" y="114.55" width="56.81" height="28.21"/><rect class="cls-5" x="57.72" y="142.76" width="56.81" height="28.21"/><rect class="cls-5" x="57.65" y="86.35" width="56.87" height="28.21"/><rect class="cls-5" x="57.65" y="58.14" width="56.87" height="28.21"/><rect class="cls-6" x="114.53" y="58.14" width="57.58" height="28.21"/><rect class="cls-6" x="114.53" y="170.97" width="57.58" height="28.21"/><rect class="cls-6" x="114.53" y="86.35" width="57.58" height="28.21"/><rect class="cls-6" x="114.53" y="114.55" width="57.58" height="28.21"/><rect class="cls-7" x="114.53" y="142.76" width="57.58" height="28.21"/><rect class="cls-8" x="0.5" y="58.14" width="57.09" height="28.21"/><rect class="cls-8" x="0.57" y="114.55" width="57.09" height="28.21"/><rect class="cls-8" x="0.57" y="86.35" width="57.09" height="28.21"/><rect class="cls-8" x="0.57" y="170.97" width="57.09" height="28.21"/><rect class="cls-8" x="0.57" y="142.76" width="57.09" height="28.21"/><text class="cls-9" transform="translate(198.09 12.91)"> <tspan class="cls-10" x="4.47" y="0">E</tspan><tspan x="13.33" y="0">XP2 Define</tspan></text><rect class="cls-4" x="274.35" y="58.14" width="40.84" height="28.21"/><rect class="cls-4" x="274.35" y="170.97" width="40.84" height="28.21"/><rect class="cls-4" x="274.35" y="142.76" width="40.84" height="28.21"/><rect class="cls-4" x="274.35" y="114.55" width="40.84" height="28.21"/><rect class="cls-4" x="274.35" y="86.35" width="40.84" height="28.21"/><rect class="cls-5" x="372.8" y="170.97" width="56.81" height="28.21"/><rect class="cls-5" x="372.83" y="114.55" width="56.81" height="28.21"/><rect class="cls-5" x="372.8" y="142.76" width="56.81" height="28.21"/><rect class="cls-5" x="372.77" y="86.35" width="56.87" height="28.21"/><rect class="cls-5" x="372.77" y="58.14" width="56.87" height="28.21"/><rect class="cls-11" x="315.18" y="58.14" width="57.58" height="28.21"/><rect class="cls-6" x="315.18" y="170.97" width="57.58" height="28.21"/><rect class="cls-6" x="315.18" y="86.35" width="57.58" height="28.21"/><rect class="cls-6" x="315.18" y="114.55" width="57.58" height="28.21"/><rect class="cls-7" x="315.18" y="142.76" width="57.58" height="28.21"/><rect class="cls-8" x="429.61" y="58.14" width="57.09" height="28.21"/><rect class="cls-8" x="429.68" y="114.55" width="57.09" height="28.21"/><rect class="cls-8" x="429.68" y="86.35" width="57.09" height="28.21"/><rect class="cls-8" x="429.68" y="170.97" width="57.09" height="28.21"/><rect class="cls-8" x="429.68" y="142.76" width="57.09" height="28.21"/><text class="cls-12" transform="translate(15.43 39.88)">Mini<tspan x="-4.89" y="14.4">12864</tspan></text><text class="cls-12" transform="translate(444.54 39.88)">Mini<tspan x="-4.89" y="14.4">12864</tspan></text><text class="cls-12" transform="translate(63.67 39.88)">RAMPS<tspan x="11.38" y="14.4">PIN</tspan></text><text class="cls-12" transform="translate(378.78 39.88)">RAMPS<tspan x="11.38" y="14.4">PIN</tspan></text><text class="cls-12" transform="translate(120.9 39.88)">RAMPS<tspan x="10.37" y="14.4">De</tspan><tspan class="cls-13" x="26.85" y="14.4">f</tspan><tspan x="31.05" y="14.4">.</tspan></text><text class="cls-12" transform="translate(321.55 39.88)">RAMPS<tspan x="10.37" y="14.4">De</tspan><tspan class="cls-13" x="26.85" y="14.4">f</tspan><tspan x="31.05" y="14.4">.</tspan></text><text class="cls-12" transform="translate(181.78 47.08)">No<tspan class="cls-14" x="18.06" y="0">.</tspan></text><text class="cls-15" transform="translate(284.02 47.08)">N<tspan class="cls-16" x="10.18" y="0">o.</tspan></text><text class="cls-17" transform="translate(189.14 75.83)">1</text><text class="cls-17" transform="translate(131.65 75.54)">KILL</text><text class="cls-17" transform="translate(17.37 75.54)">KILL</text><text class="cls-17" transform="translate(18.52 103.74)">RST</text><text class="cls-17" transform="translate(75.5 103.74)">RST</text><text class="cls-17" transform="translate(74.99 131.95)">D51</text><text class="cls-17" transform="translate(74.99 75.84)">D41</text><text class="cls-17" transform="translate(128.01 131.95)">MOSI</text><text class="cls-17" transform="translate(13.8 131.95)">MOSI</text><text class="cls-17" transform="translate(22.49 160.15)">SS</text><text class="cls-17" transform="translate(74.99 160.15)">D53</text><text class="cls-17" transform="translate(136.7 160.15)">SS</text><text class="cls-17" transform="translate(74.99 188.36)">D52</text><text class="cls-17" transform="translate(132.5 188.36)">SCK</text><text class="cls-17" transform="translate(18.29 188.36)">SCK</text><text class="cls-17" transform="translate(189.14 104.04)">3</text><text class="cls-17" transform="translate(189.14 132.25)">5</text><text class="cls-17" transform="translate(189.14 160.45)">7</text><text class="cls-17" transform="translate(189.14 188.66)">9</text><text class="cls-17" transform="translate(287.98 188.66)">10</text><text class="cls-17" transform="translate(291.37 160.45)">8</text><text class="cls-17" transform="translate(291.37 132.25)">6</text><text class="cls-17" transform="translate(291.37 104.04)">4</text><text class="cls-17" transform="translate(291.37 75.83)">2</text><text class="cls-18" transform="translate(330.75 75.54)">GND</text><text class="cls-17" transform="translate(387.98 75.54)">GND</text><text class="cls-17" transform="translate(444.92 75.54)">GND</text><text class="cls-17" transform="translate(450.16 103.74)">CD</text><text class="cls-17" transform="translate(390.07 103.74)">D49</text><text class="cls-17" transform="translate(390.1 131.95)">D33</text><text class="cls-17" transform="translate(318.6 131.95)"><tspan class="cls-19">B</tspan><tspan x="7.21" y="0">TN_EN2</tspan></text><text class="cls-17" transform="translate(318.6 160.15)"><tspan class="cls-19">B</tspan><tspan x="7.21" y="0">TN_EN1</tspan></text><text class="cls-17" transform="translate(390.07 160.15)">D31</text><text class="cls-17" transform="translate(390.07 188.36)">D50</text><text class="cls-17" transform="translate(328.66 188.36)">MISO</text><text class="cls-17" transform="translate(432.84 160.15)"><tspan class="cls-19">B</tspan><tspan x="7.21" y="0">TN_EN1</tspan></text><text class="cls-17" transform="translate(442.91 188.36)">MISO</text><text class="cls-17" transform="translate(432.84 131.95)"><tspan class="cls-19">B</tspan><tspan x="7.21" y="0">TN_EN2</tspan></text><text class="cls-17" transform="translate(335.92 103.74)">CD</text><text class="cls-17" transform="translate(132.73 103.74)">RST</text></g></g></svg>